<mxfile host="65bd71144e">
    <diagram id="GlaTxKUYCz7_4uUPIkvQ" name="Page-1">
        <mxGraphModel dx="1179" dy="662" grid="1" gridSize="10" guides="1" tooltips="1" connect="1" arrows="1" fold="1" page="1" pageScale="1" pageWidth="1100" pageHeight="850" math="0" shadow="0">
            <root>
                <mxCell id="0"/>
                <mxCell id="1" parent="0"/>
                <mxCell id="101" value="" style="rounded=0;whiteSpace=wrap;html=1;dashed=1;fillColor=#EAFFE9;strokeColor=#394F2D;strokeWidth=3;align=center;" vertex="1" parent="1">
                    <mxGeometry x="100" y="160" width="880" height="560" as="geometry"/>
                </mxCell>
                <mxCell id="67" value="[7:0]" style="edgeStyle=orthogonalEdgeStyle;rounded=0;html=1;exitX=0.5;exitY=0;exitDx=0;exitDy=0;entryX=0.5;entryY=1;entryDx=0;entryDy=0;strokeColor=#00FF00;strokeWidth=4;" edge="1" parent="1" source="33" target="5">
                    <mxGeometry x="0.75" y="-20" relative="1" as="geometry">
                        <mxPoint as="offset"/>
                    </mxGeometry>
                </mxCell>
                <mxCell id="68" value="[7:0]" style="edgeStyle=orthogonalEdgeStyle;rounded=0;html=1;exitX=0.25;exitY=0;exitDx=0;exitDy=0;entryX=0.25;entryY=1;entryDx=0;entryDy=0;strokeColor=#FF0000;strokeWidth=4;" edge="1" parent="1" source="33" target="2">
                    <mxGeometry x="0.8571" y="20" relative="1" as="geometry">
                        <mxPoint as="offset"/>
                    </mxGeometry>
                </mxCell>
                <mxCell id="63" value="[9:0]" style="edgeStyle=orthogonalEdgeStyle;rounded=0;html=1;exitX=1;exitY=0.5;exitDx=0;exitDy=0;entryX=0;entryY=0.5;entryDx=0;entryDy=0;strokeWidth=4;" edge="1" parent="1" source="2" target="12">
                    <mxGeometry x="-0.5" y="10" relative="1" as="geometry">
                        <mxPoint as="offset"/>
                    </mxGeometry>
                </mxCell>
                <mxCell id="2" value="TMDS&lt;br&gt;for RED channel" style="rounded=0;whiteSpace=wrap;html=1;" vertex="1" parent="1">
                    <mxGeometry x="600" y="200" width="120" height="80" as="geometry"/>
                </mxCell>
                <mxCell id="77" value="[9:0]" style="edgeStyle=orthogonalEdgeStyle;rounded=0;html=1;exitX=1;exitY=0.5;exitDx=0;exitDy=0;entryX=0;entryY=0.5;entryDx=0;entryDy=0;strokeColor=#000000;strokeWidth=4;" edge="1" parent="1" source="5" target="71">
                    <mxGeometry x="-0.5" y="10" relative="1" as="geometry">
                        <mxPoint as="offset"/>
                    </mxGeometry>
                </mxCell>
                <mxCell id="5" value="TMDS&lt;br&gt;for GREEN channel" style="rounded=0;whiteSpace=wrap;html=1;" vertex="1" parent="1">
                    <mxGeometry x="600" y="320" width="120" height="80" as="geometry"/>
                </mxCell>
                <mxCell id="78" value="[9:0]" style="edgeStyle=orthogonalEdgeStyle;rounded=0;html=1;exitX=1;exitY=0.5;exitDx=0;exitDy=0;entryX=0;entryY=0.5;entryDx=0;entryDy=0;strokeColor=#000000;strokeWidth=4;" edge="1" parent="1" source="6" target="74">
                    <mxGeometry x="-0.5" y="10" relative="1" as="geometry">
                        <mxPoint as="offset"/>
                    </mxGeometry>
                </mxCell>
                <mxCell id="6" value="TMDS&lt;br&gt;for BLUE channel" style="rounded=0;whiteSpace=wrap;html=1;" vertex="1" parent="1">
                    <mxGeometry x="600" y="440" width="120" height="80" as="geometry"/>
                </mxCell>
                <mxCell id="8" value="TMDS out [2:0]" style="text;html=1;strokeColor=none;fillColor=none;align=center;verticalAlign=middle;whiteSpace=wrap;rounded=0;dashed=1;" vertex="1" parent="1">
                    <mxGeometry x="1000" y="200" width="80" height="80" as="geometry"/>
                </mxCell>
                <mxCell id="9" value="TMDS pixel clock 25.2Mhz" style="text;html=1;strokeColor=none;fillColor=none;align=center;verticalAlign=middle;whiteSpace=wrap;rounded=0;dashed=1;" vertex="1" parent="1">
                    <mxGeometry x="1000" y="280" width="80" height="80" as="geometry"/>
                </mxCell>
                <mxCell id="90" style="edgeStyle=orthogonalEdgeStyle;rounded=0;html=1;exitX=1;exitY=0.5;exitDx=0;exitDy=0;entryX=0;entryY=0.5;entryDx=0;entryDy=0;strokeColor=#000000;strokeWidth=1;startArrow=none;startFill=0;" edge="1" parent="1" source="12" target="8">
                    <mxGeometry relative="1" as="geometry"/>
                </mxCell>
                <mxCell id="12" value="DDR10 shiftout" style="rounded=0;whiteSpace=wrap;html=1;" vertex="1" parent="1">
                    <mxGeometry x="800" y="200" width="80" height="80" as="geometry"/>
                </mxCell>
                <mxCell id="34" style="edgeStyle=orthogonalEdgeStyle;rounded=0;html=1;exitX=1;exitY=0.5;exitDx=0;exitDy=0;entryX=0;entryY=0.5;entryDx=0;entryDy=0;" edge="1" parent="1" source="26" target="29">
                    <mxGeometry relative="1" as="geometry"/>
                </mxCell>
                <mxCell id="26" value="Clock 27Mhz" style="text;html=1;strokeColor=none;fillColor=none;align=center;verticalAlign=middle;whiteSpace=wrap;rounded=0;dashed=1;" vertex="1" parent="1">
                    <mxGeometry y="240" width="80" height="80" as="geometry"/>
                </mxCell>
                <mxCell id="87" style="edgeStyle=orthogonalEdgeStyle;rounded=0;html=1;exitX=1;exitY=0.5;exitDx=0;exitDy=0;strokeColor=#000000;strokeWidth=1;" edge="1" parent="1" source="27">
                    <mxGeometry relative="1" as="geometry">
                        <mxPoint x="160" y="679.75" as="targetPoint"/>
                    </mxGeometry>
                </mxCell>
                <mxCell id="27" value="Reset" style="text;html=1;strokeColor=none;fillColor=none;align=center;verticalAlign=middle;whiteSpace=wrap;rounded=0;dashed=1;" vertex="1" parent="1">
                    <mxGeometry y="640" width="80" height="80" as="geometry"/>
                </mxCell>
                <mxCell id="86" style="edgeStyle=orthogonalEdgeStyle;rounded=0;html=1;exitX=1;exitY=0.5;exitDx=0;exitDy=0;entryX=0;entryY=0.5;entryDx=0;entryDy=0;strokeColor=#000000;strokeWidth=1;" edge="1" parent="1" source="28" target="33">
                    <mxGeometry relative="1" as="geometry"/>
                </mxCell>
                <mxCell id="28" value="Button" style="text;html=1;strokeColor=none;fillColor=none;align=center;verticalAlign=middle;whiteSpace=wrap;rounded=0;dashed=1;" vertex="1" parent="1">
                    <mxGeometry y="560" width="80" height="80" as="geometry"/>
                </mxCell>
                <mxCell id="35" value="126Mhz" style="edgeStyle=orthogonalEdgeStyle;rounded=0;html=1;exitX=0.5;exitY=1;exitDx=0;exitDy=0;entryX=0.5;entryY=0;entryDx=0;entryDy=0;" edge="1" parent="1" source="29" target="30">
                    <mxGeometry y="20" relative="1" as="geometry">
                        <mxPoint x="210" y="370" as="targetPoint"/>
                        <mxPoint as="offset"/>
                    </mxGeometry>
                </mxCell>
                <mxCell id="29" value="PLL 126Mhz&lt;br&gt;(x12, /3)" style="rounded=0;whiteSpace=wrap;html=1;" vertex="1" parent="1">
                    <mxGeometry x="120" y="240" width="120" height="80" as="geometry"/>
                </mxCell>
                <mxCell id="60" value="25.2Mhz" style="edgeStyle=orthogonalEdgeStyle;rounded=0;html=1;exitX=0.5;exitY=1;exitDx=0;exitDy=0;" edge="1" parent="1" source="30">
                    <mxGeometry x="1" y="-20" relative="1" as="geometry">
                        <mxPoint x="240" y="520" as="targetPoint"/>
                        <Array as="points">
                            <mxPoint x="180" y="520"/>
                        </Array>
                        <mxPoint as="offset"/>
                    </mxGeometry>
                </mxCell>
                <mxCell id="30" value="Clock divider&lt;br&gt;25.2Mhz" style="rounded=0;whiteSpace=wrap;html=1;" vertex="1" parent="1">
                    <mxGeometry x="120" y="400" width="120" height="80" as="geometry"/>
                </mxCell>
                <mxCell id="45" style="edgeStyle=orthogonalEdgeStyle;rounded=0;html=1;exitX=1;exitY=0.25;exitDx=0;exitDy=0;entryX=0;entryY=0.25;entryDx=0;entryDy=0;" edge="1" parent="1" source="32" target="2">
                    <mxGeometry relative="1" as="geometry">
                        <Array as="points">
                            <mxPoint x="480" y="380"/>
                            <mxPoint x="480" y="220"/>
                        </Array>
                    </mxGeometry>
                </mxCell>
                <mxCell id="46" value="" style="edgeStyle=orthogonalEdgeStyle;rounded=0;html=1;entryX=0;entryY=0.25;entryDx=0;entryDy=0;startArrow=oval;startFill=1;" edge="1" parent="1" target="5">
                    <mxGeometry x="-0.3333" y="10" relative="1" as="geometry">
                        <mxPoint x="480" y="340" as="sourcePoint"/>
                        <mxPoint as="offset"/>
                    </mxGeometry>
                </mxCell>
                <mxCell id="48" style="edgeStyle=orthogonalEdgeStyle;rounded=0;html=1;entryX=0;entryY=0.25;entryDx=0;entryDy=0;startArrow=oval;startFill=1;" edge="1" parent="1" target="6">
                    <mxGeometry relative="1" as="geometry">
                        <mxPoint x="480" y="380" as="sourcePoint"/>
                        <Array as="points">
                            <mxPoint x="480" y="380"/>
                            <mxPoint x="480" y="460"/>
                        </Array>
                    </mxGeometry>
                </mxCell>
                <mxCell id="89" value="DataArea" style="edgeLabel;html=1;align=center;verticalAlign=middle;resizable=0;points=[];rotation=270;" vertex="1" connectable="0" parent="48">
                    <mxGeometry x="0.054" y="1" relative="1" as="geometry">
                        <mxPoint x="-36" y="-109" as="offset"/>
                    </mxGeometry>
                </mxCell>
                <mxCell id="49" value="Hsyn" style="edgeStyle=orthogonalEdgeStyle;rounded=0;html=1;exitX=1;exitY=0.5;exitDx=0;exitDy=0;entryX=0;entryY=0.5;entryDx=0;entryDy=0;" edge="1" parent="1" source="32" target="6">
                    <mxGeometry x="0.1667" y="-10" relative="1" as="geometry">
                        <Array as="points">
                            <mxPoint x="470" y="400"/>
                            <mxPoint x="470" y="480"/>
                        </Array>
                        <mxPoint as="offset"/>
                    </mxGeometry>
                </mxCell>
                <mxCell id="50" style="edgeStyle=orthogonalEdgeStyle;rounded=0;html=1;exitX=1;exitY=0.75;exitDx=0;exitDy=0;entryX=0;entryY=0.75;entryDx=0;entryDy=0;" edge="1" parent="1" source="32" target="6">
                    <mxGeometry relative="1" as="geometry">
                        <Array as="points">
                            <mxPoint x="460" y="420"/>
                            <mxPoint x="460" y="500"/>
                        </Array>
                    </mxGeometry>
                </mxCell>
                <mxCell id="88" value="Vsyn" style="edgeLabel;html=1;align=center;verticalAlign=middle;resizable=0;points=[];" vertex="1" connectable="0" parent="50">
                    <mxGeometry x="0.1325" y="2" relative="1" as="geometry">
                        <mxPoint y="12" as="offset"/>
                    </mxGeometry>
                </mxCell>
                <mxCell id="32" value="Synchronous video control signal&lt;br&gt;(Hsyn, Vsyn, DataArea)" style="rounded=0;whiteSpace=wrap;html=1;" vertex="1" parent="1">
                    <mxGeometry x="320" y="360" width="120" height="80" as="geometry"/>
                </mxCell>
                <mxCell id="66" value="[7:0]" style="edgeStyle=orthogonalEdgeStyle;rounded=0;html=1;exitX=0.75;exitY=0;exitDx=0;exitDy=0;entryX=0.75;entryY=1;entryDx=0;entryDy=0;strokeColor=#0000FF;strokeWidth=4;" edge="1" parent="1" source="33" target="6">
                    <mxGeometry y="-20" relative="1" as="geometry">
                        <mxPoint as="offset"/>
                    </mxGeometry>
                </mxCell>
                <mxCell id="33" value="RGB data generator" style="rounded=0;whiteSpace=wrap;html=1;" vertex="1" parent="1">
                    <mxGeometry x="600" y="560" width="120" height="80" as="geometry"/>
                </mxCell>
                <mxCell id="69" value="25.2MHz" style="endArrow=classic;html=1;rounded=0;strokeColor=#000000;strokeWidth=1;entryX=0;entryY=0.75;entryDx=0;entryDy=0;" edge="1" parent="1" target="12">
                    <mxGeometry x="-1" y="-10" width="50" height="50" relative="1" as="geometry">
                        <mxPoint x="760" y="260" as="sourcePoint"/>
                        <mxPoint x="780" y="270" as="targetPoint"/>
                        <mxPoint as="offset"/>
                    </mxGeometry>
                </mxCell>
                <mxCell id="70" value="126MHz" style="endArrow=classic;html=1;rounded=0;strokeColor=#000000;strokeWidth=1;entryX=0;entryY=0.25;entryDx=0;entryDy=0;" edge="1" parent="1" target="12">
                    <mxGeometry x="-1" y="10" width="50" height="50" relative="1" as="geometry">
                        <mxPoint x="760" y="220" as="sourcePoint"/>
                        <mxPoint x="790" y="220" as="targetPoint"/>
                        <mxPoint as="offset"/>
                    </mxGeometry>
                </mxCell>
                <mxCell id="95" style="edgeStyle=orthogonalEdgeStyle;rounded=0;html=1;exitX=1;exitY=0.5;exitDx=0;exitDy=0;entryX=0;entryY=0.5;entryDx=0;entryDy=0;strokeColor=#000000;strokeWidth=1;startArrow=none;startFill=0;endArrow=classic;endFill=1;" edge="1" parent="1" source="71" target="8">
                    <mxGeometry relative="1" as="geometry">
                        <Array as="points">
                            <mxPoint x="900" y="360"/>
                            <mxPoint x="900" y="240"/>
                        </Array>
                    </mxGeometry>
                </mxCell>
                <mxCell id="71" value="DDR10 shiftout" style="rounded=0;whiteSpace=wrap;html=1;" vertex="1" parent="1">
                    <mxGeometry x="800" y="320" width="80" height="80" as="geometry"/>
                </mxCell>
                <mxCell id="72" value="25.2MHz" style="endArrow=classic;html=1;rounded=0;strokeColor=#000000;strokeWidth=1;entryX=0;entryY=0.75;entryDx=0;entryDy=0;" edge="1" target="71" parent="1">
                    <mxGeometry x="-1" y="-10" width="50" height="50" relative="1" as="geometry">
                        <mxPoint x="760.0000000000005" y="380" as="sourcePoint"/>
                        <mxPoint x="780" y="390" as="targetPoint"/>
                        <mxPoint as="offset"/>
                    </mxGeometry>
                </mxCell>
                <mxCell id="73" value="126MHz" style="endArrow=classic;html=1;rounded=0;strokeColor=#000000;strokeWidth=1;entryX=0;entryY=0.25;entryDx=0;entryDy=0;" edge="1" target="71" parent="1">
                    <mxGeometry x="-1" y="10" width="50" height="50" relative="1" as="geometry">
                        <mxPoint x="760.0000000000005" y="340" as="sourcePoint"/>
                        <mxPoint x="790" y="340" as="targetPoint"/>
                        <mxPoint as="offset"/>
                    </mxGeometry>
                </mxCell>
                <mxCell id="96" style="edgeStyle=orthogonalEdgeStyle;rounded=0;html=1;exitX=1;exitY=0.5;exitDx=0;exitDy=0;entryX=0;entryY=0.5;entryDx=0;entryDy=0;strokeColor=#000000;strokeWidth=1;startArrow=none;startFill=0;endArrow=classic;endFill=1;" edge="1" parent="1" source="74" target="8">
                    <mxGeometry relative="1" as="geometry">
                        <Array as="points">
                            <mxPoint x="900" y="480"/>
                            <mxPoint x="900" y="240"/>
                        </Array>
                    </mxGeometry>
                </mxCell>
                <mxCell id="74" value="DDR10 shiftout" style="rounded=0;whiteSpace=wrap;html=1;" vertex="1" parent="1">
                    <mxGeometry x="800" y="440" width="80" height="80" as="geometry"/>
                </mxCell>
                <mxCell id="75" value="25.2MHz" style="endArrow=classic;html=1;rounded=0;strokeColor=#000000;strokeWidth=1;entryX=0;entryY=0.75;entryDx=0;entryDy=0;" edge="1" target="74" parent="1">
                    <mxGeometry x="-1" y="-10" width="50" height="50" relative="1" as="geometry">
                        <mxPoint x="760.0000000000005" y="500" as="sourcePoint"/>
                        <mxPoint x="780" y="510" as="targetPoint"/>
                        <mxPoint as="offset"/>
                    </mxGeometry>
                </mxCell>
                <mxCell id="76" value="126MHz" style="endArrow=classic;html=1;rounded=0;strokeColor=#000000;strokeWidth=1;entryX=0;entryY=0.25;entryDx=0;entryDy=0;" edge="1" target="74" parent="1">
                    <mxGeometry x="-1" y="10" width="50" height="50" relative="1" as="geometry">
                        <mxPoint x="760.0000000000005" y="460" as="sourcePoint"/>
                        <mxPoint x="790" y="460" as="targetPoint"/>
                        <mxPoint as="offset"/>
                    </mxGeometry>
                </mxCell>
                <mxCell id="80" value="25.2MHz" style="endArrow=classic;html=1;rounded=0;strokeColor=#000000;strokeWidth=1;entryX=0;entryY=0.25;entryDx=0;entryDy=0;" edge="1" parent="1" target="32">
                    <mxGeometry x="-1" y="-10" width="50" height="50" relative="1" as="geometry">
                        <mxPoint x="280.00000000000045" y="380" as="sourcePoint"/>
                        <mxPoint x="320" y="380" as="targetPoint"/>
                        <mxPoint as="offset"/>
                    </mxGeometry>
                </mxCell>
                <mxCell id="81" value="25.2MHz" style="endArrow=classic;html=1;rounded=0;strokeColor=#000000;strokeWidth=1;entryX=0;entryY=0.75;entryDx=0;entryDy=0;" edge="1" parent="1">
                    <mxGeometry x="-1" y="-10" width="50" height="50" relative="1" as="geometry">
                        <mxPoint x="560.0000000000005" y="240" as="sourcePoint"/>
                        <mxPoint x="600" y="240" as="targetPoint"/>
                        <mxPoint as="offset"/>
                    </mxGeometry>
                </mxCell>
                <mxCell id="82" value="25.2MHz" style="endArrow=classic;html=1;rounded=0;strokeColor=#000000;strokeWidth=1;entryX=0;entryY=0.75;entryDx=0;entryDy=0;" edge="1" parent="1">
                    <mxGeometry x="-1" y="-10" width="50" height="50" relative="1" as="geometry">
                        <mxPoint x="560.0000000000005" y="359.7" as="sourcePoint"/>
                        <mxPoint x="600" y="359.7" as="targetPoint"/>
                        <mxPoint as="offset"/>
                    </mxGeometry>
                </mxCell>
                <mxCell id="83" value="25.2MHz" style="endArrow=classic;html=1;rounded=0;strokeColor=#000000;strokeWidth=1;entryX=0;entryY=0.75;entryDx=0;entryDy=0;" edge="1" parent="1">
                    <mxGeometry x="-1" y="-10" width="50" height="50" relative="1" as="geometry">
                        <mxPoint x="560.0000000000005" y="520" as="sourcePoint"/>
                        <mxPoint x="600" y="520" as="targetPoint"/>
                        <mxPoint as="offset"/>
                    </mxGeometry>
                </mxCell>
                <mxCell id="84" value="25.2MHz" style="endArrow=classic;html=1;rounded=0;strokeColor=#000000;strokeWidth=1;entryX=0;entryY=0.75;entryDx=0;entryDy=0;" edge="1" parent="1">
                    <mxGeometry x="-1" y="-10" width="50" height="50" relative="1" as="geometry">
                        <mxPoint x="560.0000000000005" y="580" as="sourcePoint"/>
                        <mxPoint x="600" y="580" as="targetPoint"/>
                        <mxPoint as="offset"/>
                    </mxGeometry>
                </mxCell>
                <mxCell id="97" value="25.2MHz" style="endArrow=classic;html=1;rounded=0;strokeColor=#000000;strokeWidth=1;entryX=0;entryY=0.5;entryDx=0;entryDy=0;" edge="1" parent="1" target="9">
                    <mxGeometry x="-0.4926" y="-10" width="50" height="50" relative="1" as="geometry">
                        <mxPoint x="920.0000000000009" y="319.43" as="sourcePoint"/>
                        <mxPoint x="960" y="319.43" as="targetPoint"/>
                        <mxPoint as="offset"/>
                    </mxGeometry>
                </mxCell>
            </root>
        </mxGraphModel>
    </diagram>
</mxfile>